<mxfile host="Electron" modified="2024-04-02T11:36:44.745Z" agent="Mozilla/5.0 (Windows NT 10.0; Win64; x64) AppleWebKit/537.36 (KHTML, like Gecko) draw.io/22.1.11 Chrome/114.0.5735.289 Electron/25.9.8 Safari/537.36" etag="2oWeVxgTfD5aAKPn7TKQ" version="22.1.11" type="device">
  <diagram name="第 1 页" id="5H7qA84HRlSqt6yQpOly">
    <mxGraphModel dx="1098" dy="828" grid="1" gridSize="10" guides="1" tooltips="1" connect="1" arrows="1" fold="1" page="1" pageScale="1" pageWidth="827" pageHeight="1169" math="0" shadow="0">
      <root>
        <mxCell id="0" />
        <mxCell id="1" parent="0" />
        <mxCell id="Ip18M1BIOPoMx3XWXxTx-4" style="edgeStyle=none;rounded=0;orthogonalLoop=1;jettySize=auto;html=1;endArrow=blockThin;endFill=1;" edge="1" parent="1" source="Ip18M1BIOPoMx3XWXxTx-1" target="Ip18M1BIOPoMx3XWXxTx-2">
          <mxGeometry relative="1" as="geometry" />
        </mxCell>
        <mxCell id="Ip18M1BIOPoMx3XWXxTx-6" value="细分精度" style="edgeLabel;html=1;align=center;verticalAlign=middle;resizable=0;points=[];" vertex="1" connectable="0" parent="Ip18M1BIOPoMx3XWXxTx-4">
          <mxGeometry x="-0.15" relative="1" as="geometry">
            <mxPoint x="9" as="offset" />
          </mxGeometry>
        </mxCell>
        <mxCell id="Ip18M1BIOPoMx3XWXxTx-8" style="edgeStyle=orthogonalEdgeStyle;rounded=0;orthogonalLoop=1;jettySize=auto;html=1;entryX=0.5;entryY=0;entryDx=0;entryDy=0;" edge="1" parent="1" source="Ip18M1BIOPoMx3XWXxTx-1" target="Ip18M1BIOPoMx3XWXxTx-3">
          <mxGeometry relative="1" as="geometry">
            <Array as="points">
              <mxPoint x="180" y="290" />
              <mxPoint x="660" y="290" />
            </Array>
          </mxGeometry>
        </mxCell>
        <mxCell id="Ip18M1BIOPoMx3XWXxTx-9" value="面片（Patch）" style="edgeLabel;html=1;align=center;verticalAlign=middle;resizable=0;points=[];" vertex="1" connectable="0" parent="Ip18M1BIOPoMx3XWXxTx-8">
          <mxGeometry x="-0.0926" y="-1" relative="1" as="geometry">
            <mxPoint x="19" as="offset" />
          </mxGeometry>
        </mxCell>
        <mxCell id="Ip18M1BIOPoMx3XWXxTx-1" value="曲面细分控制着色器" style="rounded=1;whiteSpace=wrap;html=1;" vertex="1" parent="1">
          <mxGeometry x="120" y="320" width="120" height="60" as="geometry" />
        </mxCell>
        <mxCell id="Ip18M1BIOPoMx3XWXxTx-5" style="edgeStyle=none;rounded=0;orthogonalLoop=1;jettySize=auto;html=1;endArrow=blockThin;endFill=1;" edge="1" parent="1" source="Ip18M1BIOPoMx3XWXxTx-2" target="Ip18M1BIOPoMx3XWXxTx-3">
          <mxGeometry relative="1" as="geometry" />
        </mxCell>
        <mxCell id="Ip18M1BIOPoMx3XWXxTx-7" value="质心坐标&lt;br&gt;连通性" style="edgeLabel;html=1;align=center;verticalAlign=middle;resizable=0;points=[];" vertex="1" connectable="0" parent="Ip18M1BIOPoMx3XWXxTx-5">
          <mxGeometry x="-0.2167" y="1" relative="1" as="geometry">
            <mxPoint x="13" y="1" as="offset" />
          </mxGeometry>
        </mxCell>
        <mxCell id="Ip18M1BIOPoMx3XWXxTx-2" value="细分曲面图元生成" style="rounded=1;whiteSpace=wrap;html=1;" vertex="1" parent="1">
          <mxGeometry x="360" y="320" width="120" height="60" as="geometry" />
        </mxCell>
        <mxCell id="Ip18M1BIOPoMx3XWXxTx-3" value="曲面细分计算着色器" style="rounded=1;whiteSpace=wrap;html=1;" vertex="1" parent="1">
          <mxGeometry x="600" y="320" width="120" height="60" as="geometry" />
        </mxCell>
        <mxCell id="Ip18M1BIOPoMx3XWXxTx-13" value="顶点" style="html=1;shadow=0;dashed=0;align=center;verticalAlign=middle;shape=mxgraph.arrows2.arrow;dy=0.6;dx=40;notch=0;" vertex="1" parent="1">
          <mxGeometry x="50" y="332.5" width="70" height="35" as="geometry" />
        </mxCell>
        <mxCell id="Ip18M1BIOPoMx3XWXxTx-14" value="顶点" style="html=1;shadow=0;dashed=0;align=center;verticalAlign=middle;shape=mxgraph.arrows2.arrow;dy=0.6;dx=40;notch=0;" vertex="1" parent="1">
          <mxGeometry x="720" y="332.5" width="70" height="35" as="geometry" />
        </mxCell>
      </root>
    </mxGraphModel>
  </diagram>
</mxfile>
